<svg width="14" height="14" viewBox="0 0 14 14" fill="none" xmlns="http://www.w3.org/2000/svg">
<path d="M12.5763 1.75019V7.98744C12.5429 8.13743 12.4725 8.26243 12.3354 8.34255C11.7888 8.66241 11.2013 8.84678 10.5669 8.8739C10.0283 8.8969 9.51141 8.78641 9.01093 8.59579C8.81507 8.52142 8.62995 8.41767 8.43296 8.34705C8.15797 8.2483 7.87735 8.15956 7.59549 8.08144C7.03301 7.92482 6.46591 7.89207 5.89193 8.02419C5.5067 8.11169 5.12791 8.22549 4.75823 8.3648C4.68648 8.39205 4.60336 8.40992 4.52799 8.40342C4.26163 8.3803 4.09138 8.18306 4.09126 7.91044C4.09067 6.99198 4.09067 6.07356 4.09126 5.15518C4.09126 4.05147 4.09126 2.94773 4.09126 1.84394C4.09126 1.61178 4.19959 1.45346 4.41624 1.36896C4.47237 1.34696 4.52874 1.32634 4.58586 1.30646C5.10059 1.12384 5.6252 0.980225 6.16817 0.910728C6.26692 0.898228 6.36579 0.887479 6.46466 0.875854H6.87714C6.8909 0.880215 6.90499 0.883434 6.91927 0.885479C7.358 0.914103 7.78486 1.00685 8.20122 1.14234C8.46158 1.22709 8.72257 1.31809 8.96868 1.43658C9.38992 1.6392 9.82277 1.79069 10.2919 1.81157C10.8517 1.83657 11.3706 1.6832 11.8574 1.41583C12.1562 1.25171 12.494 1.39808 12.5667 1.72832C12.5691 1.73593 12.5723 1.74326 12.5763 1.75019Z" fill="#ED9C00"/>
<path d="M3.22649 0.875C3.24787 0.88225 3.26899 0.889749 3.29049 0.896499C3.38372 0.925106 3.46586 0.981789 3.52568 1.05881C3.5855 1.13584 3.62009 1.22944 3.62473 1.32686C3.62635 1.35811 3.62573 1.38935 3.62573 1.4206V12.1817H3.71685C5.08754 12.1817 6.45832 12.1817 7.82918 12.1817C8.04105 12.1817 8.20117 12.2647 8.29166 12.4589C8.41153 12.7155 8.27304 13.0188 8.00242 13.1028C7.98105 13.1094 7.96005 13.1175 7.93893 13.125H2.15154C2.14461 13.1208 2.13728 13.1173 2.12966 13.1146C1.8818 13.053 1.72593 12.8396 1.75305 12.5996C1.78018 12.3597 1.98067 12.1852 2.23503 12.1824C2.36003 12.1812 2.48502 12.1824 2.61002 12.1824C2.63189 12.1824 2.65364 12.18 2.67927 12.1785V1.42873C2.67927 1.3996 2.67927 1.37035 2.67989 1.34123C2.68977 1.11474 2.82926 0.943497 3.04888 0.887499C3.05839 0.884043 3.06762 0.879865 3.0765 0.875H3.22649Z" fill="#ED9C00"/>
</svg>
