<svg width="32" height="32" viewBox="0 0 32 32" fill="none" xmlns="http://www.w3.org/2000/svg">
<path d="M17.6084 23.0311L19.0383 17.5948L20.0745 13.8203C20.9402 9.81491 11.9785 13.2165 10.667 14.2399L10.7722 15.4413C11.9664 14.6009 16.4885 13.5243 15.5869 16.4996L15.1824 18.0183L13.1205 25.7101C12.2548 29.7155 21.2165 26.3139 22.528 25.2905L22.4228 24.0891C21.2289 24.9298 16.7068 26.0064 17.6084 23.0311Z" fill="#585858"/>
<path d="M18.7943 10.879C20.3257 10.879 21.5672 9.63751 21.5672 8.1061C21.5672 6.5747 20.3257 5.33325 18.7943 5.33325C17.2629 5.33325 16.0215 6.5747 16.0215 8.1061C16.0215 9.63751 17.2629 10.879 18.7943 10.879Z" fill="#585858"/>
</svg>
