<svg width="32" height="32" viewBox="0 0 32 32" fill="none" xmlns="http://www.w3.org/2000/svg">
<path d="M18.6667 5.33329C18.6667 5.45037 18.6591 5.56568 18.6445 5.67877C22.858 6.88004 24 10.9208 24 13.1111V21.3333H26.6667C27.4031 21.3333 28 21.9302 28 22.6666C28 23.403 27.4031 24 26.6667 24H5.33333C4.59696 24 4 23.403 4 22.6666C4 21.9302 4.59696 21.3333 5.33333 21.3333H8V13.1111C8 10.9208 9.14197 6.88004 13.3555 5.67877C13.3409 5.56568 13.3333 5.45037 13.3333 5.33329C13.3333 3.86053 14.5272 2.66663 16 2.66663C17.4728 2.66663 18.6667 3.86053 18.6667 5.33329Z" fill="#585858"/>
<path d="M18.6663 25.3333C18.6663 26.8061 17.4725 27.9999 15.9997 27.9999C14.5269 27.9999 13.333 26.8061 13.333 25.3333H18.6663Z" fill="#585858"/>
<circle cx="24.3333" cy="7.33333" r="5.33333" fill="#FC82A9"/>
</svg>
